<svg xmlns="http://www.w3.org/2000/svg" viewBox="0 0 120 120" fill="none">
  <defs>
    <linearGradient id="g" x1="0" y1="0" x2="1" y2="1">
      <stop offset="0%" stop-color="#38bdf8" />
      <stop offset="100%" stop-color="#a855f7" />
    </linearGradient>
  </defs>
  <rect width="120" height="120" rx="28" fill="#0f172a" />
  <path d="M30 60c0-18 14-32 32-32s32 14 32 32-14 32-32 32S30 78 30 60Z" stroke="url(#g)" stroke-width="10" fill="none" />
  <path d="M36 60c0-15 11-24 26-24s26 9 26 24-11 24-26 24S36 75 36 60Z" fill="#0f172a" />
  <path d="M48 60c0-8 6-12 14-12s14 4 14 12-6 12-14 12-14-4-14-12Z" fill="url(#g)" />
</svg>
